<?xml version="1.0" encoding="utf-8"?>
<!-- Generator: Adobe Illustrator 16.0.0, SVG Export Plug-In . SVG Version: 6.00 Build 0)  -->
<!DOCTYPE svg PUBLIC "-//W3C//DTD SVG 1.1//EN" "http://www.w3.org/Graphics/SVG/1.1/DTD/svg11.dtd">
<svg version="1.1" id="Layer_1" xmlns="http://www.w3.org/2000/svg" xmlns:xlink="http://www.w3.org/1999/xlink" x="0px" y="0px"
	 width="50px" height="50px" viewBox="0 0 50 50" enable-background="new 0 0 50 50" xml:space="preserve">
<path fill="#FFFFFF" d="M25.076,2.345c-12.153,0-22.004,9.853-22.004,22.004c0,10.357,7.162,19.018,16.796,21.359
	c0.131-0.189,0.197-0.416,0.197-0.635c0-0.51-0.017-5.174-0.026-6.947c-5.754,1.283-6.974-2.846-6.974-2.846
	c-0.942-2.449-2.3-3.105-2.3-3.105c-1.875-1.324,0.139-1.293,0.139-1.293c2.078,0.148,3.168,2.189,3.168,2.189
	c1.847,3.244,4.839,2.309,6.024,1.764c0.184-1.365,0.721-2.307,1.311-2.836c-4.591-0.535-9.423-2.355-9.423-10.486
	c0-2.319,0.804-4.215,2.125-5.689c-0.213-0.537-0.922-2.699,0.203-5.619c0,0,1.739-0.57,5.692,2.171
	c1.653-0.471,3.419-0.702,5.181-0.711c1.755,0.009,3.53,0.24,5.181,0.711c3.954-2.746,5.683-2.171,5.683-2.171
	c1.128,2.92,0.415,5.082,0.204,5.619c1.322,1.486,2.125,3.382,2.125,5.689c0,8.146-4.84,9.941-9.451,10.47
	c0.74,0.654,1.404,1.945,1.404,3.924c0,2.836-0.028,8.461-0.028,9.154c0,0.201,0.052,0.416,0.163,0.6
	C40.008,43.256,47.08,34.641,47.08,24.35C47.08,12.198,37.23,2.345,25.076,2.345z"/>
</svg>
