<?xml version="1.0" encoding="utf-8"?>
<!-- Generator: Adobe Illustrator 16.0.0, SVG Export Plug-In . SVG Version: 6.00 Build 0)  -->
<!DOCTYPE svg PUBLIC "-//W3C//DTD SVG 1.1//EN" "http://www.w3.org/Graphics/SVG/1.1/DTD/svg11.dtd">
<svg version="1.1" id="Layer_1" xmlns="http://www.w3.org/2000/svg" xmlns:xlink="http://www.w3.org/1999/xlink" x="0px" y="0px"
	 width="143px" height="40px" viewBox="0 0 143 40" enable-background="new 0 0 143 40" xml:space="preserve">
<path fill="#FFFFFF" d="M83.447,39.332l-5.815-9.929l-2.958,2.899v7.029h-8.584V0.001h8.584v22.073l2.289-2.946l4.818-5.853h12.257
	L83.879,23.503l10.732,15.828H83.447z"/>
<path fill="#FFFFFF" d="M25.361,39.021l-3.223-13.632l-3.221,13.632H7.414L0.87,13.041h8.918l3.216,17.65l4.165-17.65h3.869h0.219
	h1.766h0.219h3.87l4.165,17.65l3.215-17.65h8.919l-6.545,25.98H25.361z"/>
<path fill="#FFFFFF" d="M141.647,20.76l0.478-7.557h-7.854l-0.574,2.798c-1.805-1.962-4.047-3.585-7.996-3.585
	c-7.144,0-11.046,4.762-11.046,13.792c0,9.032,3.902,13.792,11.046,13.792c3.949,0,6.191-1.618,7.996-3.58l0.574,2.796h7.854
	l-0.478-7.557V20.76z M133.082,29.548c-1.097,1.472-2.811,2.454-5.05,2.454c-2.567,0-4.615-1.72-4.615-5.794
	c0-4.073,2.047-5.792,4.615-5.792c2.239,0,3.953,0.983,5.05,2.455V29.548z"/>
<path fill="#FFFFFF" d="M52.627,0.147c-2.71,0-4.907,2.266-4.907,5.06s2.196,5.059,4.907,5.059c2.712,0,4.908-2.265,4.908-5.059
	S55.339,0.147,52.627,0.147"/>
<path fill="#FFFFFF" d="M60.02,18.659v-5.537h-3.713h-8.586v8.948v8.374v8.738v0.209H60.02V33.88h-3.854V18.659H60.02z"/>
<path fill="#FFFFFF" d="M105.458,0.147c2.71,0,4.907,2.266,4.907,5.06s-2.197,5.059-4.907,5.059c-2.711,0-4.91-2.265-4.91-5.059
	S102.747,0.147,105.458,0.147"/>
<path fill="#FFFFFF" d="M98.065,18.659v-5.537h3.714h8.586v8.948v8.374v8.738v0.209h-12.3V33.88h3.854V18.659H98.065z"/>
</svg>
